<?xml version="1.0" standalone="no"?>
<!DOCTYPE svg PUBLIC "-//W3C//DTD SVG 20010904//EN"
 "http://www.w3.org/TR/2001/REC-SVG-20010904/DTD/svg10.dtd">
<svg version="1.0" xmlns="http://www.w3.org/2000/svg"
 width="646.000000pt" height="386.000000pt" viewBox="0 0 646.000000 386.000000"
 preserveAspectRatio="xMidYMid meet">

<g transform="translate(0.000000,386.000000) scale(0.100000,-0.100000)"
fill="#000000" stroke="none">
<path d="M4594 3836 c-52 -24 -94 -76 -94 -116 0 -29 1 -28 -289 -113 -55 -16
-76 -18 -79 -9 -6 18 -19 16 -163 -32 -517 -169 -540 -176 -608 -176 -55 0
-75 -5 -118 -30 -28 -16 -68 -50 -89 -75 -30 -37 -59 -56 -152 -101 -173 -83
-173 -83 -557 -493 -33 -35 -67 -72 -75 -81 -174 -189 -234 -254 -277 -300
l-53 -55 0 247 0 247 113 3 112 3 3 215 c3 223 1 236 -48 410 -10 36 -32 115
-49 176 -17 62 -31 116 -31 121 0 4 10 13 23 18 18 8 22 19 25 66 2 39 -1 59
-11 68 -11 9 -123 11 -445 9 l-430 -3 -27 -25 c-53 -50 -55 -60 -55 -325 l0
-246 -42 3 -41 3 2 85 c0 47 -3 103 -8 124 -12 49 -65 103 -108 112 -33 6 -33
6 -33 -35 0 -33 6 -46 30 -68 29 -26 30 -28 30 -123 l0 -97 -48 -7 c-72 -9
-134 -53 -166 -117 l-26 -53 0 -372 c0 -339 1 -372 17 -378 9 -4 90 -4 180 0
l163 7 -2 -712 -3 -713 -177 2 -178 1 0 -346 0 -345 795 0 795 0 -2 343 -3
342 -180 5 c-99 3 -179 8 -177 13 1 4 2 69 2 145 l0 137 128 142 c70 78 132
142 138 142 7 1 20 -11 30 -26 24 -38 296 -414 351 -485 24 -31 43 -59 43 -62
0 -3 -50 -6 -110 -6 l-110 0 2 -342 3 -343 793 -3 792 -2 -2 342 -3 343 -182
3 -181 2 -72 98 c-39 53 -127 174 -196 267 -69 94 -135 184 -147 202 -12 18
-74 102 -137 189 -63 86 -131 178 -150 205 -19 26 -63 87 -98 134 -35 47 -62
92 -60 99 2 8 104 121 228 252 262 277 286 302 321 319 34 18 197 66 334 99
61 15 151 37 200 51 50 13 142 38 205 54 175 46 301 81 310 86 17 10 11 24
360 -920 45 -121 92 -247 105 -280 43 -109 43 -105 -22 -178 -32 -35 -94 -107
-138 -158 -44 -52 -112 -124 -152 -161 -62 -57 -80 -68 -120 -73 -94 -14 -204
-43 -222 -59 -21 -19 -68 -103 -61 -108 17 -12 522 -210 645 -253 252 -88 487
-4 591 211 42 87 54 189 33 264 -34 119 2 341 77 476 37 67 41 97 20 148 -13
31 -62 77 -96 88 -10 4 -32 60 -59 149 -23 79 -48 159 -55 178 -8 27 -8 35 2
38 22 8 26 -7 -131 493 -63 202 -70 233 -68 298 2 67 -1 77 -35 135 -84 142
-126 229 -138 289 -8 35 -18 75 -24 89 -15 38 -190 199 -240 220 -57 25 -86
24 -148 -5z m-3011 -179 c2 -7 4 -102 3 -212 l-1 -200 -92 -3 -93 -3 0 210 c0
158 3 211 13 214 28 12 165 7 170 -6z m386 -12 c19 -19 130 -397 131 -445 0
-22 -5 -20 -55 30 -49 49 -70 90 -46 90 5 0 11 7 14 15 12 30 -12 23 -62 -17
-38 -31 -50 -47 -45 -60 5 -16 -1 -18 -45 -18 l-51 0 0 49 c0 39 -6 56 -26 80
-14 17 -36 31 -47 31 -12 0 -32 3 -44 6 -22 6 -23 10 -23 130 l0 123 113 4
c131 3 167 0 186 -18z m2531 -87 c0 -24 -9 -74 -18 -113 l-18 -70 -75 -6
c-112 -10 -594 -63 -672 -74 -119 -17 50 48 396 152 47 14 57 21 55 36 -3 17
17 26 147 68 83 26 158 48 168 48 14 1 17 -7 17 -41z m-2522 -305 c2 -9 -7
-13 -27 -13 -31 0 -42 14 -18 23 19 8 40 3 45 -10z m3261 -890 c17 -58 26 -73
41 -73 16 0 24 -17 45 -87 15 -49 37 -121 50 -160 28 -85 25 -87 -65 -50 l-54
23 -22 129 c-12 72 -32 184 -43 250 -12 66 -21 129 -20 140 0 25 40 -75 68
-172z"/>
</g>
</svg>
